<svg xmlns="http://www.w3.org/2000/svg" width="26" height="29" viewBox="0 0 26 29" fill="none"><path fill-rule="evenodd" clip-rule="evenodd" d="M21.247 22.928H3.85299C3.45582 22.9284 3.06326 22.843 2.70214 22.6777C2.34101 22.5124 2.01986 22.271 1.76064 21.9701C1.50142 21.6692 1.31024 21.3158 1.20019 20.9342C1.09014 20.5526 1.0638 20.1517 1.12299 19.759C1.48619 17.3534 2.6884 15.1537 4.51699 13.549V9.033C4.51699 6.90252 5.36332 4.85929 6.8698 3.35281C8.37628 1.84633 10.4195 1 12.55 1C14.6805 1 16.7237 1.84633 18.2302 3.35281C19.7367 4.85929 20.583 6.90252 20.583 9.033V13.548C22.4129 15.1526 23.6156 17.3533 23.978 19.76C24.037 20.1527 24.0106 20.5534 23.9004 20.9349C23.7903 21.3164 23.5991 21.6696 23.3399 21.9704C23.0807 22.2712 22.7596 22.5125 22.3986 22.6778C22.0375 22.843 21.6451 22.9284 21.248 22.928H21.247ZM14.577 23.1H14.906C15.1995 23.1032 15.4864 23.1878 15.7347 23.3444C15.9829 23.501 16.1829 23.7235 16.3123 23.9869C16.4416 24.2504 16.4953 24.5447 16.4674 24.8369C16.4394 25.1291 16.3309 25.4078 16.154 25.642C15.7333 26.2011 15.1886 26.6548 14.5626 26.9674C13.9367 27.28 13.2467 27.443 12.547 27.4433C11.8473 27.4437 11.1571 27.2816 10.5308 26.9697C9.90453 26.6578 9.35925 26.2046 8.93799 25.646C8.75888 25.4105 8.64923 25.1295 8.62145 24.8349C8.59366 24.5403 8.64885 24.2438 8.78076 23.9789C8.91268 23.7141 9.11607 23.4914 9.36793 23.3361C9.61979 23.1807 9.91008 23.099 10.206 23.1H14.578H14.577Z" fill="#FFC800" stroke="#141f23" stroke-width="2"/></svg>
